<?xml version="1.0" encoding="UTF-8" standalone="no"?>
<!-- Created with Inkscape (http://www.inkscape.org/) -->

<svg
   width="118.766mm"
   height="138.0336mm"
   viewBox="0 0 118.766 138.0336"
   version="1.1"
   id="svg1"
   inkscape:version="1.3.2 (091e20e, 2023-11-25, custom)"
   sodipodi:docname="leaf.svg"
   xmlns:inkscape="http://www.inkscape.org/namespaces/inkscape"
   xmlns:sodipodi="http://sodipodi.sourceforge.net/DTD/sodipodi-0.dtd"
   xmlns:xlink="http://www.w3.org/1999/xlink"
   xmlns="http://www.w3.org/2000/svg"
   xmlns:svg="http://www.w3.org/2000/svg">
  <sodipodi:namedview
     id="namedview1"
     pagecolor="#ffffff"
     bordercolor="#000000"
     borderopacity="0.25"
     inkscape:showpageshadow="2"
     inkscape:pageopacity="0.0"
     inkscape:pagecheckerboard="0"
     inkscape:deskcolor="#d1d1d1"
     inkscape:document-units="mm"
     inkscape:zoom="1"
     inkscape:cx="224"
     inkscape:cy="477.5"
     inkscape:window-width="2560"
     inkscape:window-height="1351"
     inkscape:window-x="-9"
     inkscape:window-y="2789"
     inkscape:window-maximized="1"
     inkscape:current-layer="layer1" />
  <defs
     id="defs1">
    <linearGradient
       id="linearGradient112"
       inkscape:collect="always">
      <stop
         style="stop-color:#892703;stop-opacity:0.99875897;"
         offset="0"
         id="stop112" />
      <stop
         style="stop-color:#4bfb63;stop-opacity:1;"
         offset="1"
         id="stop113" />
    </linearGradient>
    <linearGradient
       id="linearGradient110"
       inkscape:collect="always">
      <stop
         style="stop-color:#7cbf00;stop-opacity:1;"
         offset="0"
         id="stop110" />
      <stop
         style="stop-color:#0dc4a6;stop-opacity:1;"
         offset="1"
         id="stop111" />
    </linearGradient>
    <clipPath
       clipPathUnits="userSpaceOnUse"
       id="clipPath72">
      <path
         id="path73"
         style="fill:#ff0000;fill-opacity:1;fill-rule:nonzero;stroke:none;stroke-width:0.264583"
         d="m 50.301321,114.38578 v 62.75121 c 0.07565,-0.0309 0.153625,-0.057 0.232029,-0.0796 0.09942,-0.0291 0.201941,-0.0411 0.30489,-0.0491 0.08735,-0.005 0.175467,-0.01 0.260967,-0.0295 0.01045,-0.003 0.02106,-0.005 0.03152,-0.008 0.03361,-0.009 0.06474,-0.0132 0.09354,-0.0145 0.03899,-0.002 0.05946,0.0165 0.08888,0.0258 0.05693,-0.0654 0.112353,-0.12323 0.120925,-0.13281 0.251233,-0.25776 0.535276,-0.48169 0.827855,-0.69039 0.06535,-0.0466 0.129998,-0.0942 0.197922,-0.13696 0.06218,-0.0391 0.128235,-0.0724 0.192235,-0.10851 0.137084,-0.0646 0.191294,-0.10809 0.350883,-0.10903 0.05732,-2.7e-4 0.125899,-0.006 0.1695,0.031 0.08845,0.0755 0.157215,0.17733 0.200504,0.28526 0.0076,0.019 0.01011,0.0408 0.01035,0.0636 0.02013,-0.0124 0.04056,-0.0243 0.06098,-0.0362 0.09377,-0.0921 0.189201,-0.18275 0.286288,-0.27078 0.06299,-0.0571 0.125542,-0.11448 0.191203,-0.16846 0.05574,-0.0458 0.115121,-0.0871 0.172599,-0.13075 0.0473,-0.0315 0.08519,-0.10162 0.141594,-0.0945 0.129323,0.0164 0.275363,0.0456 0.374653,0.12866 0.02779,-0.024 0.056,-0.0472 0.08785,-0.0651 0.20597,-0.11588 0.377198,-0.0902 0.461473,0.22738 0.03249,0.005 0.05943,0.0173 0.06873,0.046 0.02191,0.0676 0.02421,0.13788 0.01913,0.20929 0.01543,-0.009 0.01831,-0.0117 0.03617,-0.0228 0.10728,-0.0658 0.217201,-0.14413 0.344164,-0.17053 0.05342,-0.011 0.129855,-0.0512 0.163299,-0.008 0.07832,0.10097 0.109902,0.22925 0.148828,0.35295 0.0011,-0.002 0.0021,-0.003 0.0031,-0.005 0.01423,-0.0327 0.02943,-0.0644 0.05013,-0.0935 0.02535,-0.0344 0.05439,-0.0647 0.0863,-0.093 0.01363,-0.0118 0.02804,-0.0227 0.04238,-0.0336 0.0039,-0.003 0.0077,-0.005 0.01138,-0.007 -0.0049,-0.009 -5.29e-4,-0.024 0.01757,-0.0336 0.02604,-0.0138 0.05558,-0.0188 0.08423,-0.0248 0.04225,-0.008 0.05421,-0.009 0.09405,-0.0134 0.0061,-0.002 0.01196,-0.003 0.0181,-0.005 0.0075,-0.002 0.01767,-0.002 0.02894,-0.002 5.29e-4,0 0.0011,-5e-5 0.0016,0 0.01048,-0.001 0.02096,-0.003 0.03152,-0.004 0.04519,-0.004 0.138578,-0.0106 0.183451,-0.0134 0.04867,-0.003 0.09748,-0.006 0.146243,-0.008 -0.01955,-0.0161 -0.03982,-0.0314 -0.05943,-0.0475 -0.02671,-0.0206 -0.05264,-0.0419 -0.0801,-0.0615 -0.01902,-0.0136 -0.03911,-0.0253 -0.05891,-0.0377 -0.01712,-0.0108 -0.03426,-0.0219 -0.05168,-0.032 -0.02035,-0.012 -0.04233,-0.0215 -0.06201,-0.0346 v -5.3e-4 c -0.02553,-0.017 -0.01953,-0.0411 -5.3e-4,-0.0424 0.0063,-5.3e-4 0.01421,0.002 0.02273,0.007 0.01886,0.0125 0.03997,0.0221 0.05943,0.0336 0.01807,0.0107 0.03598,0.0224 0.05374,0.0336 0.01995,0.0125 0.04024,0.0235 0.05943,0.0372 0.02848,0.0204 0.05547,0.0432 0.0832,0.0646 0.02873,0.0235 0.05905,0.0456 0.0863,0.0708 0.0019,0.002 0.0051,0.005 0.0072,0.007 0.04654,-0.002 0.09303,-0.006 0.139528,-0.008 0.136935,-0.005 0.113882,-0.005 0.256315,-0.007 -0.01633,-10e-4 -0.0328,2.1e-4 -0.04909,-0.002 -0.03936,-0.003 -0.04037,-0.0423 0,-0.0403 0.01918,0.001 0.03875,-0.001 0.05788,0.002 0.01918,0.002 0.03827,0.004 0.05736,0.007 0.02164,0.003 0.04387,0.003 0.0646,0.0103 0.01744,0.006 0.03381,0.0146 0.05064,0.0222 0.02843,5.3e-4 0.0569,-8e-5 0.08526,5.3e-4 0.04301,0.001 0.08623,0.002 0.129191,0.004 0.04479,0.002 0.08963,0.008 0.134361,0.0109 0.132469,0.0136 0.117859,0.009 0.249595,0.0341 0.03815,0.007 0.07722,0.012 0.114204,0.0238 0.04364,0.0139 0.108974,0.0491 0.166399,0.0796 0.03255,-10e-4 0.0651,-0.002 0.09767,-0.004 2.64e-4,-2e-4 7.94e-4,-2.1e-4 0.0011,-5.3e-4 2.65e-4,2.5e-4 7.94e-4,2.2e-4 0.0011,5.3e-4 0.01929,-7.9e-4 0.03858,-2.1e-4 0.05787,-0.002 0.02014,-7.9e-4 0.04033,-0.002 0.06046,-0.003 0.02646,-0.0253 0.05458,-0.0465 0.09095,-0.0661 0.07175,-0.0301 0.147638,-0.0299 0.223759,-0.0269 0.08601,0.007 0.167661,0.0351 0.247531,0.0661 0.0079,0.003 0.01545,0.006 0.02326,0.009 0.104426,0.001 0.209373,0.003 0.312127,0.0228 0.0026,-7.9e-4 0.0051,-0.002 0.0078,-0.003 0.0019,-5.3e-4 0.0038,0.002 0.0062,0.005 0.0021,5.3e-4 0.0045,4e-5 0.0067,5.3e-4 0.006,0.002 0.01204,0.004 0.0181,0.005 0.02654,-0.007 0.05343,-0.0109 0.08062,-0.0134 0.0097,-2.5e-4 0.01881,3e-5 0.02791,5.3e-4 -0.0067,-0.0177 -0.01513,-0.0354 -0.01757,-0.0543 -0.01193,-0.0918 0.02892,-0.14406 0.07545,-0.14986 0.04652,-0.006 0.09859,0.0347 0.110072,0.12662 8.5e-5,7.9e-4 5.29e-4,5.2e-4 5.29e-4,0.002 0.0013,0.002 0.0019,0.004 0.0026,0.006 0.0011,0.002 0.0021,0.005 0.0031,0.008 0.0052,0.0142 0.0024,0.008 0.0083,0.0191 0.02418,0.0444 0.04826,0.0886 0.07183,0.13332 0.02358,0.0463 0.0487,0.0918 0.07855,0.13435 0.02408,0.0319 0.04821,0.0637 0.0708,0.0966 0.02273,0.032 0.04262,0.0653 0.06046,0.10025 0.01416,0.0263 0.02572,0.0547 0.04134,0.0801 0.01315,0.0211 0.0272,0.0414 0.04031,0.0625 0.01651,0.0271 0.03108,0.0554 0.04702,0.0827 0.01199,0.0214 0.02527,0.0418 0.03979,0.0615 0.01841,0.0256 0.03736,0.0498 0.05633,0.0749 0.02019,0.0288 0.04167,0.0562 0.06356,0.0837 0.02127,0.0289 0.04506,0.0552 0.06976,0.0811 0.0315,0.0326 0.06509,0.0632 0.0987,0.0935 0.04174,0.038 0.08756,0.0715 0.133323,0.10438 0.04974,0.0339 0.09723,0.0705 0.144696,0.10749 0.03516,0.0284 0.07121,0.0556 0.108521,0.0811 0.03213,0.0222 0.06392,0.0451 0.09612,0.0672 0.0333,0.0219 0.06725,0.0437 0.101801,0.0635 0.04007,0.0222 0.08132,0.0418 0.122473,0.062 0.04939,0.0245 0.09808,0.05 0.147794,0.0739 0.01976,0.01 0.03991,0.0184 0.05995,0.0274 0.07462,0.0335 0.10096,0.0856 0.09302,0.12661 H 159.44867 V 114.3894 Z m 7.024378,61.47532 c -0.04297,0 -0.0857,0.001 -0.128672,0.002 -0.141909,0.002 -0.119195,0.002 -0.255799,0.007 -0.03345,0.001 -0.06683,0.004 -0.100253,0.006 0.03335,0.034 0.06262,0.0673 0.09509,0.10283 0.02265,-2.4e-4 0.04135,-2.4e-4 0.05374,0.008 0.01429,-0.005 0.02968,-0.009 0.04806,-0.01 0.06007,-0.003 0.119583,0.0251 0.170016,0.0625 0.07994,-0.007 0.159911,-0.0142 0.239778,-0.0222 0.0557,-0.005 0.111646,-0.009 0.167431,-0.0124 -0.04824,-0.0342 -0.0801,-0.0613 -0.184483,-0.11524 -0.01982,-0.009 -0.03976,-0.0176 -0.05943,-0.0269 -0.01516,-1.9e-4 -0.03033,-5.3e-4 -0.04548,-5.3e-4 z m 0.142111,0.002 v 5.2e-4 c 0.103187,0.0525 0.132053,0.0721 0.21859,0.13643 0.06858,-0.004 0.136988,-0.007 0.205674,-0.009 0.09461,-0.004 0.189156,-0.007 0.283702,-0.0109 -0.03605,-0.0171 -0.07107,-0.038 -0.09457,-0.0455 -0.0365,-0.0117 -0.075,-0.0161 -0.112654,-0.0232 -0.129789,-0.0247 -0.114758,-0.0207 -0.245981,-0.0341 -0.0441,-0.003 -0.08812,-0.008 -0.132291,-0.0104 -0.04086,-0.002 -0.08158,-0.003 -0.122473,-0.004 z m -0.683678,0.016 c -0.06218,0.003 -0.124402,0.006 -0.186553,0.0103 -0.02204,0.002 -0.05768,0.004 -0.09147,0.007 0.0059,0.003 0.01156,0.007 0.01601,0.0119 0.0369,0.0415 0.07181,0.087 0.0925,0.13849 0.0067,0.0167 0.0038,0.0348 0.0011,0.0532 0.01516,-0.002 0.03032,-0.003 0.04547,-0.005 5.29e-4,-0.002 7.94e-4,-0.005 0.0016,-0.007 0.0086,-0.0259 0.0057,-0.0699 0.03256,-0.0749 0.08225,-0.0143 0.140739,-0.0243 0.186036,-0.03 -0.03705,-0.0396 -0.06991,-0.0771 -0.09715,-0.10387 z m -3.747575,0.43718 c -0.01035,0.005 -0.02064,0.01 -0.03101,0.0145 0.0059,0.004 0.0114,0.008 0.01757,0.0119 0.0084,0.005 0.02186,-0.002 0.02635,-0.0113 0.003,-0.006 -0.0086,-0.01 -0.01291,-0.015 z m -0.400494,0.22583 c -0.02066,0.0148 -0.04133,0.0292 -0.06201,0.0439 -0.114255,0.0812 -0.18737,0.13659 -0.266649,0.19895 0.01177,-0.005 0.0367,-0.0162 0.04547,-0.0201 0.04093,-0.0183 0.106592,-0.049 0.16433,-0.0755 0.02601,-0.0314 0.05233,-0.0624 0.07751,-0.0946 0.01378,-0.0176 0.02764,-0.0351 0.04134,-0.0527 z m -1.179256,0.54983 c -0.0109,-0.001 -0.01646,0.005 -0.01963,0.0119 0.0011,0.009 0.01095,0.0159 0.01034,0.0253 h 5.29e-4 c 0.003,5.3e-4 0.0064,5.3e-4 0.01035,-5.3e-4 0.01286,-0.003 0.02511,-0.008 0.03773,-0.0124 -0.0159,-0.0159 -0.02934,-0.0232 -0.03928,-0.0243 z m 9.560658,0.006 c 0.0061,-4e-5 0.01286,0.001 0.02066,0.005 0.0075,0.003 0.01492,0.008 0.02222,0.0119 0.01905,0.0105 0.03802,0.0211 0.05684,0.032 0.01905,0.0114 0.03817,0.0229 0.05736,0.0341 0.01638,0.01 0.03258,0.019 0.04909,0.0289 0.01632,0.009 0.03253,0.0189 0.04858,0.0289 0.01601,0.01 0.03194,0.02 0.04806,0.03 0.01717,0.0105 0.0346,0.0203 0.05168,0.031 0.01458,0.009 0.02926,0.0184 0.04393,0.0274 0.01381,0.008 0.02781,0.0147 0.04186,0.0227 0.01278,0.007 0.02535,0.0152 0.03772,0.0233 0.01032,0.006 0.02088,0.0121 0.03101,0.0191 0.01119,0.007 0.02241,0.0136 0.0341,0.0196 0.01246,0.007 0.02498,0.0136 0.03773,0.0196 0.01217,0.006 0.0249,0.0111 0.03669,0.0181 0.0094,0.005 0.01842,0.0105 0.02842,0.0145 0.0094,0.005 0.01913,0.009 0.02842,0.0129 0.0077,0.004 0.01503,0.008 0.02273,0.0119 0.007,0.003 0.014,0.006 0.02119,0.009 0.0064,0.003 0.01304,0.005 0.01963,0.007 0.0061,0.002 0.01199,0.004 0.0181,0.006 0.007,0.002 0.01418,0.004 0.02119,0.006 0.0085,0.002 0.01725,0.004 0.02585,0.006 0.007,0.002 0.01408,0.003 0.02119,0.004 0.0054,0.001 0.01072,0.002 0.01603,0.003 0.0074,0.002 0.01471,0.004 0.02222,0.005 0.01029,0.002 0.02088,0.003 0.03101,0.006 0.0065,0.002 0.01291,0.002 0.01913,0.005 v -5.3e-4 c 0.04239,0.0186 0.02447,0.0616 -0.0181,0.0434 h -5.29e-4 c -5.3e-4,1.8e-4 -0.0011,-5.3e-4 -0.0016,-5.3e-4 -7.94e-4,-1.6e-4 -0.0013,-2.7e-4 -0.0021,-5.3e-4 -0.0049,-0.001 -0.0013,-0.001 -0.0078,-0.002 -0.0094,-0.003 -0.01892,-0.004 -0.02842,-0.006 -0.0082,-10e-4 -0.01619,-0.003 -0.02429,-0.005 -0.0042,-0.001 -0.0086,-0.001 -0.01291,-0.002 -0.0078,-0.001 -0.01556,-0.002 -0.02326,-0.004 -0.0096,-0.002 -0.01902,-0.005 -0.02842,-0.007 -0.0074,-0.002 -0.01482,-0.004 -0.02223,-0.006 -0.0063,-0.002 -0.01283,-0.004 -0.01913,-0.006 -0.0076,-0.003 -0.01535,-0.005 -0.02273,-0.008 -0.0082,-0.004 -0.01577,-0.006 -0.02379,-0.0104 -0.0081,-0.004 -0.01577,-0.008 -0.02376,-0.0124 -0.0088,-0.004 -0.01796,-0.008 -0.02687,-0.0119 -0.01127,-0.005 -0.02193,-0.0111 -0.03256,-0.017 -0.01106,-0.006 -0.02222,-0.0105 -0.03359,-0.0165 -0.01334,-0.007 -0.02677,-0.0132 -0.03979,-0.0202 -0.01252,-0.007 -0.02469,-0.0147 -0.03669,-0.0217 -0.01016,-0.007 -0.02066,-0.0131 -0.031,-0.0191 -0.01183,-0.008 -0.02344,-0.0147 -0.03566,-0.0217 -0.01426,-0.008 -0.02836,-0.0152 -0.04237,-0.0233 -0.01508,-0.009 -0.02999,-0.0189 -0.04496,-0.0279 -0.01704,-0.0106 -0.03457,-0.0205 -0.05168,-0.031 -0.01619,-0.01 -0.03196,-0.02 -0.04806,-0.03 -0.01564,-0.01 -0.03166,-0.0189 -0.04754,-0.0279 -0.01669,-0.01 -0.03304,-0.0194 -0.04961,-0.0295 -0.01921,-0.0112 -0.03828,-0.0232 -0.05736,-0.0346 -0.01839,-0.0107 -0.03671,-0.0207 -0.0553,-0.031 -0.0066,-0.003 -0.01336,-0.007 -0.02016,-0.0103 -0.03386,-0.0164 -0.02673,-0.0474 -5.29e-4,-0.0475 z m -5.967595,0.39687 c -0.06856,0.0446 -0.137102,0.0894 -0.20464,0.13539 -0.04791,0.0316 -0.09578,0.0631 -0.143658,0.0946 h 0.601512 c -0.05496,-0.0548 -0.104341,-0.11618 -0.147794,-0.18138 -0.0055,0.004 -0.01109,0.009 -0.01654,0.0129 -0.0064,0.005 -0.01241,0.0164 -0.01913,0.0124 -0.02619,-0.0144 -0.0525,-0.0336 -0.06666,-0.06 -0.0019,-0.003 -0.0016,-0.006 -5.29e-4,-0.0103 -0.0011,5.3e-4 -0.0019,-0.003 -0.0026,-0.004 z m -3.919657,0.0584 c -0.04357,9e-5 -0.08713,2.1e-4 -0.130741,0.003 -0.170757,0.006 -0.34145,0.0147 -0.512114,0.0227 -0.05674,0.003 -0.113784,0.005 -0.170532,0.008 -0.0052,2.5e-4 -0.01035,0 -0.0155,5.3e-4 v 0.13798 h 1.120863 c -0.02326,-0.0193 -0.04671,-0.0425 -0.06925,-0.0718 -0.0048,-0.006 -0.01087,-0.0112 -0.01601,-0.017 -0.01548,-0.006 -0.0291,-0.0139 -0.03824,-0.0279 -0.0066,-0.0101 -0.01257,-0.0206 -0.0186,-0.031 -0.0034,-0.003 -0.0065,-0.007 -0.0098,-0.0103 -0.0027,-0.003 -0.006,-0.007 -0.0093,-0.0104 -0.04359,-0.002 -0.08717,-0.003 -0.130741,-0.003 z m 9.729121,0.004 c -0.0021,0.0304 -0.0035,0.0565 -0.0067,0.0966 -0.0016,0.0208 -0.08575,0.0487 -0.117822,0.0527 -0.01823,0.003 -0.03697,0.003 -0.0553,0.004 -0.07613,2.6e-4 -0.144267,-0.0288 -0.208772,-0.0651 -0.01402,0.005 -0.02791,0.01 -0.04186,0.0145 -0.06917,0.0248 -0.139893,0.0442 -0.213423,0.0512 -0.04029,0.003 -0.06349,0.007 -0.103354,0.003 -0.05817,-0.005 -0.114104,-0.0202 -0.166915,-0.0434 -0.0072,2.6e-4 -0.01447,10e-4 -0.0217,0.002 -0.199901,0.004 -0.400098,-0.002 -0.599964,-0.005 -0.04187,-8e-4 -0.0837,-5.3e-4 -0.125574,-0.002 -0.01423,0.0145 -0.03074,0.0262 -0.05064,0.0331 -0.05257,0.0182 -0.106204,-0.008 -0.159681,-0.0357 -0.01929,-1.4e-4 -0.03858,-1.8e-4 -0.05788,-5.3e-4 -0.0096,0.0162 -0.01924,0.0325 -0.02791,0.0491 -0.05164,-0.0183 -0.104327,-0.0333 -0.156577,-0.0501 -0.06697,-2.1e-4 -0.134049,-5.3e-4 -0.201023,-5.3e-4 -0.0089,0.0159 -0.01699,0.0323 -0.03824,0.0667 h 2.67684 c -0.04007,-0.0198 -0.07982,-0.04 -0.119891,-0.0599 -0.04522,-0.0221 -0.09099,-0.0435 -0.134874,-0.0682 -0.02331,-0.0137 -0.04592,-0.0285 -0.06873,-0.0429 z m -9.03614,0.004 c -0.0055,0.002 -0.01106,0.004 -0.01654,0.006 -0.03395,0.012 -0.06544,0.0241 -0.09664,0.0357 0.0031,0.0449 0.01,0.0926 -0.0098,0.12247 h 0.880052 c -0.01558,-0.0331 -0.03026,-0.0669 -0.04289,-0.10129 -0.04882,-0.003 -0.09752,-0.008 -0.146246,-0.0129 -0.01048,0.0109 -0.02037,0.0212 -0.03256,0.0331 -0.10435,0.10183 -0.1503,0.12193 -0.210839,-0.0548 -0.06375,-0.007 -0.127579,-0.0116 -0.19172,-0.0145 -0.04434,-0.004 -0.08853,-0.009 -0.132807,-0.0139 z m 3.782198,0.0548 c -0.04395,0.0323 -0.08784,0.0646 -0.132292,0.0961 -0.0045,0.003 -0.0094,0.008 -0.01394,0.0129 h 0.172601 c -0.01376,-0.0199 -0.02506,-0.0354 -0.04031,-0.0579 -0.01169,-0.0172 -0.0024,-0.0343 0.01394,-0.0511 z m 1.645893,0.016 c -7.94e-4,7.9e-4 -0.0024,0.002 -0.0031,0.003 -0.03102,0.0309 -0.06336,0.0603 -0.09508,0.0904 h 1.229381 c 0.0011,-0.003 0.0019,-0.007 0.0031,-0.0103 0.004,-0.0179 0.0072,-0.0359 0.01188,-0.0537 -0.04561,2e-5 -0.09123,2e-5 -0.136941,0 -0.0088,-2.6e-4 -0.01757,-0.002 -0.02635,-0.002 -0.02241,0.0202 -0.05054,0.036 -0.0863,0.0445 -0.07771,0.0186 -0.130289,-0.003 -0.166915,-0.0419 -0.0047,2.1e-4 -0.0093,7.9e-4 -0.01394,0.001 -0.02953,8e-5 -0.05884,10e-4 -0.08837,10e-4 -0.04112,-5.3e-4 -0.08243,-0.002 -0.123508,-0.005 -0.0092,2.6e-4 -0.01828,2e-4 -0.02687,-0.002 -0.04451,-0.003 -0.08888,-0.007 -0.133326,-0.0108 -0.03922,0.0156 -0.08005,0.0283 -0.117821,0.046 -0.01685,-0.0177 -0.03464,-0.035 -0.05219,-0.0522 -0.05789,-0.003 -0.115541,-0.007 -0.173633,-0.008 z m -4.075718,0.0217 c -0.03492,0.0312 -0.06247,0.0548 -0.0832,0.0718 h 0.203605 c -0.03562,-0.0217 -0.07011,-0.0453 -0.102836,-0.0713 -0.0058,-2.3e-4 -0.01172,-2.5e-4 -0.01757,-5.3e-4 z m 0.758608,0.006 v 5.3e-4 c -0.06566,0.0142 -0.132213,0.0235 -0.198954,0.031 -0.04847,0.003 -0.09644,-0.003 -0.144176,-0.0103 -0.01995,0.0147 -0.03992,0.0293 -0.05995,0.0439 h 0.557591 c -0.0092,-0.005 -0.01852,-0.0104 -0.02739,-0.016 -0.0097,-0.006 0.0016,-0.0166 0.01291,-0.0274 0.0032,-0.006 0.0066,-0.0117 0.0098,-0.0176 -0.04422,0.0228 -0.09386,0.0339 -0.141595,0.003 -0.003,-0.002 -0.0054,-0.005 -0.0083,-0.007 z m 4.505669,0.004 c -0.0054,0.0211 -0.0093,0.0423 -0.01394,0.0635 -1.82e-4,5.3e-4 -1.06e-4,8e-5 -5.29e-4,0.002 h 0.03359 c 0.0039,-0.006 0.0079,-0.0118 0.01188,-0.0181 0.01574,-0.0254 0.0204,-0.0355 0.02739,-0.0475 -0.01947,-2e-5 -0.03894,0 -0.05839,0 z m -4.960422,0.0475 c -0.0027,0.005 -0.0059,0.01 -0.0083,0.0145 -0.0024,0.005 0.01281,-0.009 0.0093,-0.0134 -2.65e-4,-2.6e-4 -7.94e-4,-5.3e-4 -0.0011,-0.001 z" />
    </clipPath>
    <linearGradient
       inkscape:collect="always"
       xlink:href="#linearGradient110"
       id="linearGradient111"
       x1="188.64792"
       y1="89.164589"
       x2="36.512493"
       y2="202.67082"
       gradientUnits="userSpaceOnUse" />
    <linearGradient
       inkscape:collect="always"
       xlink:href="#linearGradient112"
       id="linearGradient113"
       x1="116.07787"
       y1="192.33809"
       x2="138.83203"
       y2="11.098501"
       gradientUnits="userSpaceOnUse"
       gradientTransform="translate(-5.7466206,3.9827491)" />
  </defs>
  <g
     inkscape:groupmode="layer"
     id="layer1"
     inkscape:label="Leafs"
     transform="translate(-55.463679,-48.655984)">
    <path
       style="display:inline;fill:url(#linearGradient113);fill-opacity:1;stroke-width:0"
       d="m 128.70312,48.655984 c 0,0 -55.972881,33.946371 -61.032316,74.974196 -0.15648,1.26893 -0.256443,2.51493 -0.325044,3.74758 6.753202,-6.74954 15.611285,-12.60121 23.958744,-16.64705 4.698485,-21.792134 22.346176,-43.665005 23.871926,-47.505112 -3.90075,5.153739 -15.372481,26.247312 -17.945151,44.901132 0.64172,-0.25133 1.29019,-0.51394 1.91512,-0.73794 8.540021,-3.06101 23.331541,-5.41941 37.572901,-7.16597 -9.5311,-22.820316 -8.01618,-51.566836 -8.01618,-51.566836 z"
       id="path94"
       sodipodi:nodetypes="csccccccc" />
    <path
       id="path107"
       style="display:inline;fill:url(#linearGradient111);fill-opacity:1;stroke-width:0"
       d="m 174.22968,96.648881 c 0,0 -54.98284,3.535249 -75.083164,10.739849 -16.106896,5.77322 -38.25861,20.79329 -42.371007,36.52081 -3.933126,15.04191 2.149925,30.792 3.002238,32.07093 9.089389,-1.53746 24.672663,-6.48968 40.316403,-13.47876 25.10895,-11.21783 73.97133,-64.3175 63.02664,-53.24171 0,0 -29.02472,41.88292 -55.15237,57.29708 -14.883219,8.78045 -29.093463,11.071 -45.956184,10.98764 8.834398,4.83091 44.097584,19.71603 71.728954,-3.57653 31.60683,-26.64377 40.48849,-77.319309 40.48849,-77.319309 z"
       sodipodi:nodetypes="csscscscsc" />
  </g>
</svg>
