<?xml version="1.0" encoding="UTF-8"?>
<svg width="400" height="300" viewBox="0 0 400 300" fill="none" xmlns="http://www.w3.org/2000/svg">
  <!-- Card Background -->
  <rect x="50" y="50" width="300" height="200" fill="white" rx="8"/>
  <rect x="50" y="50" width="300" height="200" rx="8" stroke="#E5E7EB" stroke-width="2"/>
  
  <!-- Plant Icon -->
  <path d="M200 100C200 100 180 120 180 140C180 160 200 180 200 180C200 180 220 160 220 140C220 120 200 100 200 100Z" fill="#10B981" fill-opacity="0.2"/>
  
  <!-- Text Lines -->
  <rect x="70" y="80" width="260" height="8" rx="4" fill="#F3F4F6"/>
  <rect x="70" y="100" width="200" height="8" rx="4" fill="#F3F4F6"/>
  <rect x="70" y="120" width="180" height="8" rx="4" fill="#F3F4F6"/>
  
  <!-- Care Instructions -->
  <rect x="70" y="150" width="120" height="80" rx="4" fill="#10B981" fill-opacity="0.1"/>
  <rect x="70" y="150" width="120" height="80" rx="4" stroke="#10B981" stroke-width="1"/>
</svg> 